Coordinates
version=1
nRows=4
nColumns=114
inDegrees=yes

Units are S.I. units (second, meters, Newtons, ...)
If the header above contains a line with 'inDegrees', this indicates whether rotational values are in degrees (yes) or radians (no).

endheader 
time	pelvis_tilt	pelvis_list	pelvis_rotation	pelvis_tx	pelvis_ty	pelvis_tz	hip_flexion_l	hip_adduction_l	hip_rotation_l	hip_flexion_r	hip_adduction_r	hip_rotation_r	knee_angle_l	knee_angle_r	ankle_angle_l	ankle_angle_r	subtalar_angle_l	subtalar_angle_r	mtp_angle_l	mtp_angle_r	lumbar_extension	lumbar_bending	lumbar_rotation	arm_flex_l	arm_add_l	arm_rot_l	arm_flex_r	arm_add_r	arm_rot_r	elbow_flex_l	elbow_flex_r	pro_sup_l	pro_sup_r	addbrev_l/activation	addlong_l/activation	addmagDist_l/activation	addmagIsch_l/activation	addmagMid_l/activation	addmagProx_l/activation	bflh_l/activation	bfsh_l/activation	edl_l/activation	ehl_l/activation	fdl_l/activation	fhl_l/activation	gaslat_l/activation	gasmed_l/activation	glmax1_l/activation	glmax2_l/activation	glmax3_l/activation	glmed1_l/activation	glmed2_l/activation	glmed3_l/activation	glmin1_l/activation	glmin2_l/activation	glmin3_l/activation	grac_l/activation	iliacus_l/activation	perbrev_l/activation	perlong_l/activation	piri_l/activation	psoas_l/activation	recfem_l/activation	sart_l/activation	semimem_l/activation	semiten_l/activation	soleus_l/activation	tfl_l/activation	tibant_l/activation	tibpost_l/activation	vasint_l/activation	vaslat_l/activation	vasmed_l/activation	addbrev_r/activation	addlong_r/activation	addmagDist_r/activation	addmagIsch_r/activation	addmagMid_r/activation	addmagProx_r/activation	bflh_r/activation	bfsh_r/activation	edl_r/activation	ehl_r/activation	fdl_r/activation	fhl_r/activation	gaslat_r/activation	gasmed_r/activation	glmax1_r/activation	glmax2_r/activation	glmax3_r/activation	glmed1_r/activation	glmed2_r/activation	glmed3_r/activation	glmin1_r/activation	glmin2_r/activation	glmin3_r/activation	grac_r/activation	iliacus_r/activation	perbrev_r/activation	perlong_r/activation	piri_r/activation	psoas_r/activation	recfem_r/activation	sart_r/activation	semimem_r/activation	semiten_r/activation	soleus_r/activation	tfl_r/activation	tibant_r/activation	tibpost_r/activation	vasint_r/activation	vaslat_r/activation	vasmed_r/activation	
          1.00000000	        -17.66329752	         -1.29972090	          3.80245314	          0.97553509	          0.56965373	         -0.22740973	         89.06963002	        -20.53893173	          0.79379873	         86.39835807	         -9.44723618	          5.58399539	        103.79953637	        106.62634614	         22.74058059	         26.51295347	        -14.81439512	        -24.80544639	        -16.60029123	        -15.38223775	        -48.85055818	         -2.96493301	          2.61862691	         88.06804203	        -29.37759602	         42.66029791	         72.25250421	        -23.74707189	         21.68908275	        118.49083347	        129.50296883	        111.17832342	        120.23822799	          0.13648290	          0.24163361	          0.21435502	          0.06894899	          0.28460310	          0.11006853	          0.13759287	          0.01005348	          0.01011619	          0.01013284	          0.01029361	          0.01043069	          0.01002838	          0.01001638	          0.35576477	          0.54256519	          0.31152480	          0.01072049	          0.11635414	          0.17701358	          0.03147468	          0.04182641	          0.08577176	          0.13737800	          0.01001109	          0.02573863	          0.05017791	          0.18509794	          0.01000700	          0.01003053	          0.01001457	          0.89447880	          0.17847413	          0.45297797	          0.01600303	          0.01003635	          0.01015771	          0.21767726	          0.66072317	          0.31375598	          0.04185981	          0.03847560	          0.17656389	          0.06975444	          0.20483945	          0.04875231	          0.09625816	          0.01004586	          0.01022710	          0.01035285	          0.02582600	          0.06428836	          0.01002447	          0.01001251	          0.27141394	          0.40992803	          0.22995395	          0.01006061	          0.03086478	          0.08733002	          0.01022682	          0.01032985	          0.02894591	          0.06239114	          0.01001430	          0.01003873	          0.01002054	          0.08631554	          0.01000785	          0.01001766	          0.01001898	          0.53688599	          0.09942340	          0.55802149	          0.07889047	          0.05714636	          0.17197671	          0.26528920	          0.79973425	          0.37828418	
          1.02000000	        -17.72766165	         -1.05715241	          3.36534937	          0.97452777	          0.57162164	         -0.22748261	         88.75951026	        -20.45289748	          0.74586740	         86.43744457	         -9.29702614	          5.68849482	        103.40363972	        106.09784267	         22.40836415	         26.21008459	        -15.22741391	        -24.80222234	        -16.78170311	        -15.37775957	        -49.07894407	         -3.38064927	          2.59873602	         88.19608049	        -29.56544406	         42.68377430	         72.36638115	        -23.80405122	         21.46718603	        117.76393645	        128.92348924	        111.93866987	        120.12747367	          0.14277537	          0.24736848	          0.22266501	          0.07132835	          0.29538661	          0.11755124	          0.16207724	          0.01005067	          0.01009880	          0.01011337	          0.01026502	          0.01031917	          0.01002956	          0.01001751	          0.35639016	          0.55136355	          0.32558827	          0.01023847	          0.10526623	          0.17249022	          0.02766790	          0.03679762	          0.07880895	          0.14340987	          0.01001052	          0.01799600	          0.03362094	          0.17971581	          0.01000671	          0.01002817	          0.01001378	          0.89368350	          0.18989175	          0.45668351	          0.01081868	          0.01002938	          0.01010715	          0.22525810	          0.68300736	          0.32583528	          0.04001996	          0.03445003	          0.18222354	          0.07178125	          0.21080184	          0.04917355	          0.10989649	          0.01004505	          0.01017618	          0.01026983	          0.03148407	          0.06355651	          0.01002780	          0.01001419	          0.28446723	          0.42853572	          0.23716992	          0.01005484	          0.03077458	          0.09097147	          0.01020670	          0.01031013	          0.03036481	          0.06745559	          0.01001320	          0.01003668	          0.01001934	          0.09413382	          0.01000726	          0.01001659	          0.01001812	          0.57317453	          0.10737171	          0.54631544	          0.05260485	          0.05151042	          0.15894516	          0.26181874	          0.79004018	          0.37474874	
          1.04000000	        -17.73180553	         -0.86018600	          2.91698610	          0.97359495	          0.57496638	         -0.22767681	         88.21653993	        -20.30660135	          0.73055680	         86.19147710	         -9.18978792	          5.62776831	        102.77362269	        105.29861239	         22.05273385	         25.93359002	        -15.65182016	        -24.82179050	        -16.98539916	        -15.33686725	        -49.24279792	         -3.74028735	          2.61275207	         88.21441171	        -29.76044716	         42.66219670	         72.34429041	        -23.97142948	         21.16069640	        116.75428654	        128.14689891	        112.64954786	        120.00858281	          0.14791810	          0.24936195	          0.23115972	          0.07438016	          0.30533917	          0.12371957	          0.15013288	          0.01004839	          0.01009126	          0.01012576	          0.01059140	          0.02034527	          0.01002833	          0.01001579	          0.35835515	          0.55923086	          0.33715195	          0.01014266	          0.09860835	          0.17044279	          0.02406831	          0.03209608	          0.07404807	          0.14813004	          0.01000995	          0.01208130	          0.02243230	          0.17082634	          0.01000645	          0.01002530	          0.01001308	          0.88008306	          0.19611889	          0.45421027	          0.01037030	          0.01003979	          0.01307986	          0.23256278	          0.69975089	          0.33652066	          0.03762678	          0.02921077	          0.18851953	          0.07444222	          0.21587924	          0.04875767	          0.10851265	          0.01004421	          0.01017694	          0.01026828	          0.02527047	          0.06103444	          0.01002494	          0.01001273	          0.30098879	          0.45121550	          0.24604128	          0.01005200	          0.03450437	          0.09829496	          0.01019450	          0.01030514	          0.03338645	          0.07226574	          0.01001206	          0.01004096	          0.01002198	          0.10129839	          0.01000671	          0.01001516	          0.01001722	          0.60885256	          0.11712125	          0.53769119	          0.03508709	          0.04204790	          0.14822752	          0.25777099	          0.77818540	          0.37073541	
          1.06000000	        -17.66547852	         -0.70923343	          2.48185091	          0.97279144	          0.57973312	         -0.22798087	         87.42803739	        -20.10188008	          0.72967556	         85.64013105	         -9.12821303	          5.42165130	        101.90611249	        104.23402473	         21.67953547	         25.67958608	        -16.07936592	        -24.86437038	        -17.18463902	        -15.26795131	        -49.33758455	         -4.03279938	          2.67126110	         88.08135269	        -29.93969762	         42.56653244	         72.16761845	        -24.25944750	         20.78506584	        115.45719781	        127.15507717	        113.30592978	        119.89543880	          0.15101571	          0.24859661	          0.23310549	          0.07590629	          0.30614185	          0.12586808	          0.17026607	          0.01004642	          0.01008794	          0.01013171	          0.01175778	          0.02873051	          0.01002703	          0.01001473	          0.34856308	          0.54739103	          0.33754431	          0.01014065	          0.09440160	          0.16552836	          0.02293314	          0.02936725	          0.06894930	          0.14682066	          0.01000976	          0.01013844	          0.01497943	          0.15982003	          0.01000642	          0.01002287	          0.01001272	          0.85306796	          0.19498066	          0.44517969	          0.01039661	          0.01004714	          0.04384006	          0.23625809	          0.70544380	          0.34223927	          0.03563786	          0.02357705	          0.19506617	          0.07755605	          0.22103256	          0.04870690	          0.12865954	          0.01004337	          0.01016133	          0.01024282	          0.02703591	          0.05915792	          0.01002533	          0.01001294	          0.31229916	          0.46916827	          0.25472894	          0.01005001	          0.03750962	          0.10339673	          0.01018396	          0.01029745	          0.03532574	          0.07668421	          0.01001100	          0.01004165	          0.01002227	          0.10703007	          0.01000627	          0.01001366	          0.01001645	          0.64086921	          0.12594617	          0.52582843	          0.02341891	          0.03491809	          0.13758483	          0.25314134	          0.76375520	          0.36597924	
